# xmcd CD database file
#
# Track frame offsets:
#	150
#	26642
#	65291
#	88041
#	105765
#
# Disc length: 1697 seconds
#
# Revision: 0
# Processed by: cddbd v1.5.2PL0 Copyright (c) Steve Scherf et al.
# Submitted via: CDex 1.70beta3
#
DISCID=30069f05
DTITLE=Bill Evans - The Cool Jazz Collection 76
DYEAR=1900
DGENRE=Jazz
TTITLE0=Nardis
TTITLE1=Alice in Wonderland
TTITLE2=Polka Dots And Moonbeams
TTITLE3=Little Lulu
TTITLE4=On a Clear Day
EXTD=
EXTT0=
EXTT1=
EXTT2=
EXTT3=
EXTT4=
PLAYORDER=
